<mxfile host="Electron" modified="2024-12-06T10:57:44.909Z" agent="Mozilla/5.0 (Windows NT 10.0; Win64; x64) AppleWebKit/537.36 (KHTML, like Gecko) draw.io/24.2.5 Chrome/120.0.6099.109 Electron/28.1.0 Safari/537.36" etag="ehRGPRIAtg5MwJZE9o-1" version="24.2.5" type="device">
  <diagram name="Page-1" id="NJ4MwHbAOfbG3tFChq2V">
    <mxGraphModel dx="1050" dy="629" grid="1" gridSize="10" guides="1" tooltips="1" connect="1" arrows="1" fold="1" page="1" pageScale="1" pageWidth="850" pageHeight="1100" math="0" shadow="0">
      <root>
        <mxCell id="0" />
        <mxCell id="1" parent="0" />
        <mxCell id="g1pOqCFvkKhQazwSI6qw-1" value="Constituent" style="shape=umlLifeline;participant=umlActor;perimeter=lifelinePerimeter;whiteSpace=wrap;html=1;container=1;collapsible=0;recursiveResize=0;verticalAlign=top;spacingTop=36;outlineConnect=0;fontSize=20;fontStyle=1;size=40;" vertex="1" parent="1">
          <mxGeometry x="125" y="550" width="40" height="330" as="geometry" />
        </mxCell>
        <mxCell id="g1pOqCFvkKhQazwSI6qw-2" value="&lt;br&gt;&lt;div&gt;Constituency connect&lt;/div&gt;&lt;div&gt;System&lt;/div&gt;" style="html=1;align=center;verticalAlign=middle;dashed=0;fontSize=16;" vertex="1" parent="1">
          <mxGeometry x="565" y="550" width="160" height="70" as="geometry" />
        </mxCell>
        <mxCell id="g1pOqCFvkKhQazwSI6qw-3" value="" style="endArrow=none;dashed=1;html=1;rounded=0;entryX=0.5;entryY=1;entryDx=0;entryDy=0;" edge="1" parent="1">
          <mxGeometry width="50" height="50" relative="1" as="geometry">
            <mxPoint x="655" y="880" as="sourcePoint" />
            <mxPoint x="655" y="620" as="targetPoint" />
          </mxGeometry>
        </mxCell>
        <mxCell id="g1pOqCFvkKhQazwSI6qw-4" value="" style="endArrow=classic;html=1;rounded=0;" edge="1" parent="1" source="g1pOqCFvkKhQazwSI6qw-7">
          <mxGeometry width="50" height="50" relative="1" as="geometry">
            <mxPoint x="215" y="700" as="sourcePoint" />
            <mxPoint x="655.5" y="700" as="targetPoint" />
            <Array as="points">
              <mxPoint x="535.5" y="700" />
            </Array>
          </mxGeometry>
        </mxCell>
        <mxCell id="g1pOqCFvkKhQazwSI6qw-5" value="UpdateEventCalender(eventdetails)" style="text;html=1;strokeColor=none;fillColor=none;align=center;verticalAlign=middle;whiteSpace=wrap;rounded=0;" vertex="1" parent="1">
          <mxGeometry x="360" y="670" width="210" height="30" as="geometry" />
        </mxCell>
        <mxCell id="g1pOqCFvkKhQazwSI6qw-6" value="SendEventNotification(eventId,Constituent)" style="html=1;verticalAlign=bottom;endArrow=open;dashed=1;endSize=8;curved=0;rounded=0;fontSize=12;" edge="1" parent="1">
          <mxGeometry x="-0.1588" relative="1" as="geometry">
            <mxPoint x="650.5" y="800" as="sourcePoint" />
            <mxPoint x="150" y="800" as="targetPoint" />
            <mxPoint x="1" as="offset" />
          </mxGeometry>
        </mxCell>
        <mxCell id="g1pOqCFvkKhQazwSI6qw-7" value="Representative" style="shape=umlLifeline;participant=umlActor;perimeter=lifelinePerimeter;whiteSpace=wrap;html=1;container=1;collapsible=0;recursiveResize=0;verticalAlign=top;spacingTop=36;outlineConnect=0;fontSize=20;fontStyle=1;size=40;" vertex="1" parent="1">
          <mxGeometry x="270" y="550" width="40" height="330" as="geometry" />
        </mxCell>
        <mxCell id="g1pOqCFvkKhQazwSI6qw-8" value="Update Event Calender" style="text;html=1;align=center;verticalAlign=middle;whiteSpace=wrap;rounded=0;fontStyle=1;fontSize=20;" vertex="1" parent="1">
          <mxGeometry x="40" y="490" width="450" height="30" as="geometry" />
        </mxCell>
      </root>
    </mxGraphModel>
  </diagram>
</mxfile>
